
Format                           : MPEG-4
Format profile                   : Base Media / Version 2
Codec ID                         : mp42
File size                        : 697 MiB
Duration                         : 1h 51mn
Overall bit rate                 : 872 Kbps
Encoded date                     : UTC 2010-10-17 18:42:44
Tagged date                      : UTC 2010-10-17 20:04:43
Writing application              : HandBrake 0.9.4 2009112300

Video
ID                               : 1
Format                           : AVC
Format/Info                      : Advanced Video Codec
Format profile                   : Main@L3.0
Format settings, CABAC           : Yes
Format settings, ReFrames        : 2 frames
Codec ID                         : avc1
Codec ID/Info                    : Advanced Video Coding
Duration                         : 1h 51mn
Bit rate mode                    : Variable
Bit rate                         : 711 Kbps
Width                            : 640 pixels
Height                           : 360 pixels
Display aspect ratio             : 16:9
Frame rate mode                  : Constant
Frame rate                       : 25.000 fps
Resolution                       : 24 bits
Colorimetry                      : 4:2:0
Scan type                        : Progressive
Bits/(Pixel*Frame)               : 0.123
Stream size                      : 566 MiB (81%)
Writing library                  : x264 core 79
Encoded date                     : UTC 2010-10-17 18:42:44
Tagged date                      : UTC 2010-10-17 20:04:43

Audio
ID                               : 2
Format                           : AAC
Format/Info                      : Advanced Audio Codec
Format version                   : Version 4
Format profile                   : LC
Format settings, SBR             : No
Codec ID                         : 40
Duration                         : 1h 51mn
Bit rate mode                    : Variable
Bit rate                         : 160 Kbps
Maximum bit rate                 : 210 Kbps
Channel(s)                       : 2 channels
Channel positions                : L R
Sampling rate                    : 48.0 KHz
Resolution                       : 16 bits
Stream size                      : 128 MiB (18%)
Encoded date                     : UTC 2010-10-17 18:42:44
Tagged date                      : UTC 2010-10-17 20:04:43

Director: Kim Bass

Starring: Andrew Keegan, Brandon Quinn, Natalia Cigliuti, Nick Carter, Robert Patrick
Kill Speed is a high-octane, youth-oriented, Top Gun meets Fast & Furious tale about best friends who fly home-built, high-tech planes to deliver Mexican-manufactured, crystal-meth throughout rural California in order to fund their Hollywood lifestyle until their group is infiltrated by a beautiful, young woman who is not what she pretends to be
 
http://www.imdb.com/title/tt1027683/
 
http://img227.imageshack.us/img227/7382/killspeedh264vicem4vsna.jpg 
http://img146.imageshack.us/img146/7382/killspeedh264vicem4vsna.jpg 
http://img149.imageshack.us/img149/7382/killspeedh264vicem4vsna.jpg 
http://img20.imageshack.us/img20/7382/killspeedh264vicem4vsna.jpg
 
http://img714.imageshack.us/img714/8371/killspeedh264vicem4vthu.jpg